<svg id="svg8" xmlns="http://www.w3.org/2000/svg" viewBox="0 0 284.82 264.94"><defs><style>.cls-1{opacity:0.4;}.cls-2{fill:#f9d304;stroke-width:5.67px;}.cls-2,.cls-3,.cls-4,.cls-5,.cls-6,.cls-7,.cls-9{stroke:#000;}.cls-2,.cls-4,.cls-7{stroke-linecap:square;stroke-dasharray:0.52 0.52;}.cls-2,.cls-3,.cls-4,.cls-5,.cls-6,.cls-7,.cls-8,.cls-9{stroke-miterlimit:11.34;}.cls-3{fill:#dcdddd;}.cls-3,.cls-4,.cls-5,.cls-6{stroke-width:2.13px;}.cls-4{fill:#00a1e9;}.cls-5,.cls-6,.cls-7{fill:none;}.cls-5,.cls-7{opacity:0.76;isolation:isolate;}.cls-7{stroke-width:2.13px;}.cls-8{fill:#fff;stroke:#fbffff;}.cls-8,.cls-9{stroke-width:1.42px;}.cls-9{fill:#2c2625;}</style></defs><g class="cls-1"><g id="g952"><path id="path833" class="cls-2" d="M82.86,266.59,44,141.17c-4-12.86,1.09-26.92,12.58-34.82L162.9,33.11a38.1,38.1,0,0,1,43.66.12L309.17,107A30.13,30.13,0,0,1,320,141.93l-45.75,126.7a26.06,26.06,0,0,1-24.59,16.94l-140.94-.39a26.84,26.84,0,0,1-25.84-18.59Z" transform="translate(-39.82 -23.46)"/><g id="text880"><path id="path1843" d="M101.55,105.4a5.16,5.16,0,0,1,1.61,2.6,5.38,5.38,0,0,1-.17,3.18,9,9,0,0,1-2.09,3.31A8.83,8.83,0,0,1,97.11,117a6.11,6.11,0,0,1-2.82.17,4.59,4.59,0,0,1-2.29-1,1.56,1.56,0,0,1-.07-2.28,1.37,1.37,0,0,1,.94-.46,2.8,2.8,0,0,1,1.29.23,8.06,8.06,0,0,0,1.58.43,3.3,3.3,0,0,0,1.5-.18,5,5,0,0,0,2.84-3.58,2.25,2.25,0,0,0-.71-2,2,2,0,0,0-1.47-.57,3.41,3.41,0,0,0-1.61.45c-.54.29-1.23.71-2.06,1.27a17.9,17.9,0,0,1-3,1.67,5.55,5.55,0,0,1-2.66.4A4.48,4.48,0,0,1,86,110.31a4.42,4.42,0,0,1-1.41-2.38,5,5,0,0,1,.29-2.91,9.63,9.63,0,0,1,2-3.07,9,9,0,0,1,2.29-1.81,6.09,6.09,0,0,1,2.2-.74,4.54,4.54,0,0,1,1.87.11,3.29,3.29,0,0,1,1.35.71,1.78,1.78,0,0,1,.56,1.14,1.46,1.46,0,0,1-.4,1.19,1.41,1.41,0,0,1-.89.49,5,5,0,0,1-1.26-.18,4.72,4.72,0,0,0-2-.21,3.52,3.52,0,0,0-2,1.23,3.72,3.72,0,0,0-1.1,2.1,1.76,1.76,0,0,0,.51,1.63A1.56,1.56,0,0,0,89,108a2.7,2.7,0,0,0,1.06-.14,5.58,5.58,0,0,0,1-.47c.32-.18.84-.5,1.55-1A26.87,26.87,0,0,1,95.17,105a8.58,8.58,0,0,1,2.23-.84,4.26,4.26,0,0,1,2.1.07,4.91,4.91,0,0,1,2,1.19Z" transform="translate(-39.82 -23.46)"/><path id="path1845" d="M111.11,101l-9.41-7.35,7.66,9.85a2.18,2.18,0,0,1,.58,1.51,1.52,1.52,0,0,1-.66,1.14,1.61,1.61,0,0,1-1.29.33,2.29,2.29,0,0,1-1.34-1L97.87,94.28a1.73,1.73,0,0,1-.49-1.62,2.89,2.89,0,0,1,1.09-1.34l.91-.68a4.51,4.51,0,0,1,1.3-.75,1.32,1.32,0,0,1,1,.11,11.92,11.92,0,0,1,1.37.93l8.2,6.23-4-9.39a9.58,9.58,0,0,1-.56-1.54,1.2,1.2,0,0,1,.14-.93,4.21,4.21,0,0,1,1.09-1l.91-.68a3,3,0,0,1,1.6-.67,1.79,1.79,0,0,1,1.47.88l8.79,11.29a2.2,2.2,0,0,1,.58,1.5,1.7,1.7,0,0,1-2,1.47,2.29,2.29,0,0,1-1.33-1l-7.67-9.84,4.75,10.83c.3.7.52,1.23.63,1.59a2.16,2.16,0,0,1,.06,1.14A1.91,1.91,0,0,1,115,102a2,2,0,0,1-1,.43,2,2,0,0,1-1-.14,4.5,4.5,0,0,1-.9-.51l-.9-.69Z" transform="translate(-39.82 -23.46)"/><path id="path1847" d="M121,78.59l2.9,5.61L127,74.34a6.83,6.83,0,0,1,.43-1.1,1.69,1.69,0,0,1,.76-.67,1.83,1.83,0,0,1,1.36-.15,1.47,1.47,0,0,1,1,.77,2.16,2.16,0,0,1,0,1.78L128.4,80.7l8,4.21a9.32,9.32,0,0,1,1.35.82,2.68,2.68,0,0,1,.76.87,1.33,1.33,0,0,1,0,1.14,1.79,1.79,0,0,1-.95,1,2.24,2.24,0,0,1-1.28.27,2.86,2.86,0,0,1-1.13-.41c-.37-.22-.7-.42-1-.61l-7-3.95-1.4,3.88,1.71,3.31a2.35,2.35,0,0,1,.31,1.73A1.87,1.87,0,0,1,126,94.19a1.69,1.69,0,0,1-.91-.29,2.37,2.37,0,0,1-.56-.61c-.16-.26-.37-.65-.63-1.16l-6.15-11.9a2.42,2.42,0,0,1-.33-1.69,1.72,1.72,0,0,1,.95-1.09,1.79,1.79,0,0,1,1.46-.1A2.31,2.31,0,0,1,121,78.59Z" transform="translate(-39.82 -23.46)"/><path id="path1849" d="M149.06,67.66l9.46,8.64L156,65.93a2.29,2.29,0,0,1,.06-1.62,1.75,1.75,0,0,1,2.43-.57,2.3,2.3,0,0,1,.82,1.4l3.38,13.72q.57,2.3-1.38,2.76a2.85,2.85,0,0,1-.91.06,2.22,2.22,0,0,1-.83-.26,4,4,0,0,1-.8-.54L158,80.2l-9.26-8.56,2.52,10.22a2.22,2.22,0,0,1-.1,1.62,1.64,1.64,0,0,1-1.09.8,1.62,1.62,0,0,1-1.35-.22,2.32,2.32,0,0,1-.84-1.4L144.52,69.2a3.85,3.85,0,0,1-.14-1.39,2,2,0,0,1,.55-1,2.1,2.1,0,0,1,1.07-.61,2.15,2.15,0,0,1,.86-.05,1.92,1.92,0,0,1,.71.28,3.91,3.91,0,0,1,.71.55l.78.73Z" transform="translate(-39.82 -23.46)"/><path id="path1851" d="M178.11,64.38l-8.33.59.33,4.39,7.67-.54a1.81,1.81,0,0,1,1.29.29,1.22,1.22,0,0,1,.49.94,1.33,1.33,0,0,1-.33,1,1.85,1.85,0,0,1-1.25.47l-7.67.55.38,5.09,8.62-.62a1.9,1.9,0,0,1,1.33.31A1.44,1.44,0,0,1,180.8,79a1.91,1.91,0,0,1-1.28.48l-10.05.72a2.43,2.43,0,0,1-1.78-.4,2.35,2.35,0,0,1-.65-1.66l-1-13.45a3,3,0,0,1,.14-1.29,1.45,1.45,0,0,1,.69-.77,3,3,0,0,1,1.27-.32l9.77-.7a1.88,1.88,0,0,1,1.33.3,1.39,1.39,0,0,1,.15,2,1.92,1.92,0,0,1-1.28.48Z" transform="translate(-39.82 -23.46)"/><path id="path1853" d="M201.61,73.62l-.33,3.43a3.74,3.74,0,0,1-.25,1.08,1.62,1.62,0,0,1-.58.68,4.53,4.53,0,0,1-1,.55,15,15,0,0,1-3.31,1,13.38,13.38,0,0,1-3.37.09,11.07,11.07,0,0,1-3.77-1,7.9,7.9,0,0,1-4.35-5.21,11.82,11.82,0,0,1,.74-7.66,7.86,7.86,0,0,1,2.15-2.76,8.32,8.32,0,0,1,3.17-1.55,11.7,11.7,0,0,1,4.07-.27,9.94,9.94,0,0,1,3.21.79,7.28,7.28,0,0,1,2.18,1.42,5.55,5.55,0,0,1,1.18,1.68,3.16,3.16,0,0,1,.3,1.49,1.54,1.54,0,0,1-.63,1.12,1.81,1.81,0,0,1-1.28.36,1.68,1.68,0,0,1-.75-.26,1.61,1.61,0,0,1-.56-.57,15.11,15.11,0,0,0-1-1.69,3.6,3.6,0,0,0-1.2-1,5,5,0,0,0-2-.56,5.89,5.89,0,0,0-2.33.22,4.85,4.85,0,0,0-1.85,1.1,5.9,5.9,0,0,0-1.29,1.9,8.76,8.76,0,0,0-.63,2.61,7.15,7.15,0,0,0,1,5,5.2,5.2,0,0,0,4,2.08,8.49,8.49,0,0,0,2.43-.11,11.3,11.3,0,0,0,2.38-.72l.28-2.9-2.86-.27a3.12,3.12,0,0,1-1.53-.45,1.09,1.09,0,0,1-.42-1.08,1.27,1.27,0,0,1,.53-.95,1.83,1.83,0,0,1,1.24-.28l4.19.4a5,5,0,0,1,1.29.26,1.39,1.39,0,0,1,.8.67,2.33,2.33,0,0,1,.2,1.42Z" transform="translate(-39.82 -23.46)"/><path id="path1855" d="M220.07,70.17,212,68l-1.18,4.25,7.42,2a1.75,1.75,0,0,1,1.12.69,1.24,1.24,0,0,1,.14,1,1.37,1.37,0,0,1-.66.87,1.85,1.85,0,0,1-1.33,0l-7.43-2-1.36,4.92,8.34,2.22a1.89,1.89,0,0,1,1.16.73,1.34,1.34,0,0,1,.15,1.13,1.37,1.37,0,0,1-.71.89,1.91,1.91,0,0,1-1.37,0l-9.73-2.59a2.41,2.41,0,0,1-1.55-1,2.32,2.32,0,0,1-.05-1.77l3.61-13a2.92,2.92,0,0,1,.57-1.16,1.38,1.38,0,0,1,.9-.51,3.12,3.12,0,0,1,1.32.11l9.45,2.51a1.85,1.85,0,0,1,1.16.72,1.27,1.27,0,0,1,.15,1.08,1.31,1.31,0,0,1-.7.88,1.93,1.93,0,0,1-1.36,0Z" transform="translate(-39.82 -23.46)"/><path id="path1857" d="M228.56,81.36l-1.18-.53-2.44,5.25a2.43,2.43,0,0,1-1.17,1.32,1.77,1.77,0,0,1-1.44-.06,1.68,1.68,0,0,1-1-1.07,2.48,2.48,0,0,1,.26-1.7L227.4,72a2.3,2.3,0,0,1,1.21-1.33,2.41,2.41,0,0,1,1.8.22l5.49,2.45a17.34,17.34,0,0,1,1.9,1,5.53,5.53,0,0,1,1.28,1,4.51,4.51,0,0,1,.95,1.55,4.26,4.26,0,0,1,.26,1.81,4.94,4.94,0,0,1-.46,1.82A4.55,4.55,0,0,1,237.42,83a6.79,6.79,0,0,1-3.9.13,6.6,6.6,0,0,1,1.07,2.14,14.68,14.68,0,0,1,.55,2.6,14.07,14.07,0,0,1,.14,2.31,3.93,3.93,0,0,1-.17,1.3,1.33,1.33,0,0,1-.51.55,1.66,1.66,0,0,1-.8.23,2,2,0,0,1-.93-.18,1.76,1.76,0,0,1-.83-.7,2.54,2.54,0,0,1-.36-.95c-.06-.35-.13-.86-.21-1.52l-.32-2.81a13,13,0,0,0-.45-2.43,3.48,3.48,0,0,0-.76-1.38,4.28,4.28,0,0,0-1.38-.9Zm5.12-6L230.56,74l-2.08,4.49,3,1.35a9.68,9.68,0,0,0,2.14.71,2.74,2.74,0,0,0,1.59-.14,2.35,2.35,0,0,0,.66-3.74,7.4,7.4,0,0,0-2.21-1.28Z" transform="translate(-39.82 -23.46)"/><path id="path1859" d="M238.42,92.72l7.5-12.08a2.45,2.45,0,0,1,1.32-1.15,1.72,1.72,0,0,1,1.42.21,1.69,1.69,0,0,1,.86,1.16,2.23,2.23,0,0,1-.43,1.67l-7.5,12.08a2.38,2.38,0,0,1-1.33,1.15,1.79,1.79,0,0,1-1.45-.21A1.72,1.72,0,0,1,238,94.4a2.34,2.34,0,0,1,.44-1.68Z" transform="translate(-39.82 -23.46)"/><path id="path1861" d="M254.36,104.12l7.4-8.45c-2.67-.14-4.28-.45-4.83-.91a1.27,1.27,0,0,1-.45-.91,1.41,1.41,0,0,1,.33-1,1.13,1.13,0,0,1,.92-.44,9.3,9.3,0,0,1,1.57.32,10.51,10.51,0,0,0,2.81.42,10,10,0,0,0,2.37-.28,13.57,13.57,0,0,1,1.47-.31,1.11,1.11,0,0,1,.75.34,1.22,1.22,0,0,1,.47,1.06,2.09,2.09,0,0,1-.61,1.3l-9.3,10.65c-1.09,1.24-2.07,1.5-2.93.78a1.54,1.54,0,0,1-.6-1.17,2.15,2.15,0,0,1,.63-1.42Z" transform="translate(-39.82 -23.46)"/><path id="path1863" d="M275.33,114.91a20.9,20.9,0,0,1-2.8,2.11,8.3,8.3,0,0,1-2.61,1.06,6.22,6.22,0,0,1-3.16-.13,5.71,5.71,0,0,1-2.59-1.68,5.62,5.62,0,0,1-1.46-3.2,6.38,6.38,0,0,1,.73-3.59,10.59,10.59,0,0,1,1.33-1.9,18.19,18.19,0,0,1,1.92-1.9,26.34,26.34,0,0,1,2.67-2.07,11.94,11.94,0,0,1,2.36-1.23,5.92,5.92,0,0,1,3.46-.21,5.84,5.84,0,0,1,2.94,1.85,6,6,0,0,1,1.23,2,4.87,4.87,0,0,1,.3,2.14,6.53,6.53,0,0,1-.59,2.28,14.12,14.12,0,0,1-3.73,4.48Zm-2.08-2.67a19.85,19.85,0,0,0,2.61-2.63,4.48,4.48,0,0,0,1-2.1,2.24,2.24,0,0,0-.63-1.81,2.36,2.36,0,0,0-2.77-.6,15.21,15.21,0,0,0-4.25,2.86,22,22,0,0,0-2.7,2.7,4.73,4.73,0,0,0-1.09,2.16,2.12,2.12,0,0,0,.6,1.78,2.19,2.19,0,0,0,1.79.8,5.1,5.1,0,0,0,2.32-.81,24.33,24.33,0,0,0,3.09-2.35Z" transform="translate(-39.82 -23.46)"/></g><path id="path891" d="M126.79,268l-2.36-8.87v9.61a1.71,1.71,0,0,1-.38,1.2,1.32,1.32,0,0,1-1,.4,1.34,1.34,0,0,1-1-.39,1.72,1.72,0,0,1-.38-1.21v-11a1.33,1.33,0,0,1,.51-1.23,2.5,2.5,0,0,1,1.35-.32h.93a3.85,3.85,0,0,1,1.21.14,1,1,0,0,1,.56.51,7.43,7.43,0,0,1,.41,1.21l2.14,7.62,2.15-7.62a7.43,7.43,0,0,1,.41-1.21,1,1,0,0,1,.55-.51,4,4,0,0,1,1.22-.14H134a2.53,2.53,0,0,1,1.36.32,1.33,1.33,0,0,1,.51,1.23v11a1.67,1.67,0,0,1-.39,1.2,1.43,1.43,0,0,1-2,0,1.71,1.71,0,0,1-.38-1.2v-9.61L130.8,268c-.16.58-.29,1-.39,1.27a1.65,1.65,0,0,1-.53.73,1.58,1.58,0,0,1-1.09.34,1.74,1.74,0,0,1-.88-.22,1.53,1.53,0,0,1-.56-.54,3,3,0,0,1-.33-.73c-.07-.28-.15-.56-.23-.85Z" transform="translate(-39.82 -23.46)"/><path id="path893" d="M149,268.53l-.7-1.74h-6l-.7,1.78a6.78,6.78,0,0,1-.7,1.42,1.18,1.18,0,0,1-1,.36,1.45,1.45,0,0,1-1-.39,1.2,1.2,0,0,1-.43-.89,1.73,1.73,0,0,1,.1-.58c.07-.21.18-.49.33-.85l3.78-9c.1-.26.23-.57.38-.93a4.49,4.49,0,0,1,.48-.91,2,2,0,0,1,.67-.58,2.22,2.22,0,0,1,1-.23,2.16,2.16,0,0,1,1,.23,1.78,1.78,0,0,1,.67.57,3.17,3.17,0,0,1,.43.76c.12.26.27.62.46,1.07l3.85,9a4.41,4.41,0,0,1,.45,1.5,1.2,1.2,0,0,1-.43.89,1.48,1.48,0,0,1-1,.4,1.26,1.26,0,0,1-.6-.13,1.1,1.1,0,0,1-.42-.31,3.22,3.22,0,0,1-.38-.63l-.33-.75Zm-5.91-3.86h4.4l-2.22-5.75Z" transform="translate(-39.82 -23.46)"/><path id="path895" d="M158.05,257.66v4.88l5.86-5.77a5.42,5.42,0,0,1,.71-.62,1.67,1.67,0,0,1,1.83.16,1.11,1.11,0,0,1,.41.87,1.69,1.69,0,0,1-.68,1.22l-3.63,3.25,4.19,5.66a7.74,7.74,0,0,1,.66,1,1.86,1.86,0,0,1,.22.86,1,1,0,0,1-.39.8,1.51,1.51,0,0,1-1,.35,1.91,1.91,0,0,1-1-.25,2.37,2.37,0,0,1-.67-.67l-.48-.76-3.53-5.13-2.44,2.21v2.88a1.8,1.8,0,0,1-.43,1.3,1.46,1.46,0,0,1-1.08.42,1.63,1.63,0,0,1-.74-.19,1.42,1.42,0,0,1-.54-.52,1.61,1.61,0,0,1-.17-.61q0-.36,0-1V257.66a1.83,1.83,0,0,1,.39-1.28,1.58,1.58,0,0,1,2.17,0,1.73,1.73,0,0,1,.43,1.28Z" transform="translate(-39.82 -23.46)"/><path id="path897" d="M180.35,268.53l-.71-1.74h-6l-.71,1.78a6.31,6.31,0,0,1-.7,1.42,1.17,1.17,0,0,1-1,.36,1.44,1.44,0,0,1-1-.39,1.18,1.18,0,0,1-.44-.89,1.75,1.75,0,0,1,.11-.58,7,7,0,0,1,.33-.85l3.77-9,.38-.93a5.79,5.79,0,0,1,.48-.91,1.91,1.91,0,0,1,.68-.58,2.18,2.18,0,0,1,1-.23,2.13,2.13,0,0,1,1,.23,1.7,1.7,0,0,1,.67.57,3.59,3.59,0,0,1,.44.76c.12.26.27.62.45,1.07l3.85,9a4.41,4.41,0,0,1,.45,1.5,1.2,1.2,0,0,1-.43.89,1.45,1.45,0,0,1-1,.4,1.28,1.28,0,0,1-.61-.13,1.1,1.1,0,0,1-.42-.31,3.27,3.27,0,0,1-.37-.63q-.19-.42-.33-.75Zm-5.92-3.86h4.41l-2.23-5.75Z" transform="translate(-39.82 -23.46)"/><path id="path899" d="M197.56,265.93a3.86,3.86,0,0,1-.7,2.27,4.44,4.44,0,0,1-2,1.58,7.91,7.91,0,0,1-3.15.57,7.44,7.44,0,0,1-3.6-.78,4.8,4.8,0,0,1-1.64-1.49,3.37,3.37,0,0,1-.62-1.83,1.16,1.16,0,0,1,.37-.87,1.34,1.34,0,0,1,1-.37,1.19,1.19,0,0,1,.79.28,2.21,2.21,0,0,1,.56.85,5.7,5.7,0,0,0,.61,1.11,2.45,2.45,0,0,0,.92.74,3.65,3.65,0,0,0,1.56.29,3.69,3.69,0,0,0,2.15-.58,1.75,1.75,0,0,0,.84-1.46,1.49,1.49,0,0,0-.45-1.13,2.85,2.85,0,0,0-1.16-.66q-.7-.22-1.89-.48a15.52,15.52,0,0,1-2.67-.82,4.45,4.45,0,0,1-1.7-1.28,3.29,3.29,0,0,1-.62-2,3.36,3.36,0,0,1,.66-2,4.19,4.19,0,0,1,1.92-1.36,8.09,8.09,0,0,1,3-.49,7.76,7.76,0,0,1,2.35.32,4.94,4.94,0,0,1,1.65.85,3.54,3.54,0,0,1,1,1.1,2.45,2.45,0,0,1,.3,1.13,1.26,1.26,0,0,1-.38.91,1.21,1.21,0,0,1-.93.4,1.15,1.15,0,0,1-.79-.24,3.68,3.68,0,0,1-.57-.79,3.51,3.51,0,0,0-1-1.23,2.9,2.9,0,0,0-1.81-.45,3.31,3.31,0,0,0-1.87.49,1.37,1.37,0,0,0-.7,1.15,1.12,1.12,0,0,0,.24.72,2,2,0,0,0,.66.52,4.16,4.16,0,0,0,.86.34c.28.09.76.21,1.42.36.84.19,1.59.39,2.26.61a6.71,6.71,0,0,1,1.72.81,3.35,3.35,0,0,1,1.1,1.21,3.56,3.56,0,0,1,.41,1.77Z" transform="translate(-39.82 -23.46)"/><path id="path901" d="M211.92,265.93a3.92,3.92,0,0,1-.69,2.27,4.53,4.53,0,0,1-2,1.58,7.9,7.9,0,0,1-3.14.57,7.38,7.38,0,0,1-3.6-.78,4.8,4.8,0,0,1-1.64-1.49,3.31,3.31,0,0,1-.63-1.83,1.19,1.19,0,0,1,.37-.87,1.34,1.34,0,0,1,1-.37,1.17,1.17,0,0,1,.79.28,2.22,2.22,0,0,1,.57.85,6.29,6.29,0,0,0,.6,1.11,2.41,2.41,0,0,0,.93.74,3.59,3.59,0,0,0,1.56.29,3.72,3.72,0,0,0,2.15-.58,1.74,1.74,0,0,0,.83-1.46,1.49,1.49,0,0,0-.45-1.13,2.79,2.79,0,0,0-1.16-.66q-.71-.22-1.89-.48a15.39,15.39,0,0,1-2.66-.82,4.37,4.37,0,0,1-1.7-1.28,3.23,3.23,0,0,1-.63-2,3.37,3.37,0,0,1,.67-2,4.09,4.09,0,0,1,1.92-1.36,8.05,8.05,0,0,1,3-.49,7.74,7.74,0,0,1,2.34.32,4.94,4.94,0,0,1,1.65.85,3.58,3.58,0,0,1,1,1.1,2.45,2.45,0,0,1,.3,1.13,1.27,1.27,0,0,1-.39.91,1.2,1.2,0,0,1-.93.4,1.18,1.18,0,0,1-.79-.24,3.68,3.68,0,0,1-.57-.79,3.61,3.61,0,0,0-1-1.23,2.92,2.92,0,0,0-1.81-.45,3.32,3.32,0,0,0-1.88.49,1.37,1.37,0,0,0-.7,1.15,1.12,1.12,0,0,0,.24.72,1.9,1.9,0,0,0,.67.52,4.08,4.08,0,0,0,.85.34c.29.09.76.21,1.43.36.83.19,1.58.39,2.25.61a6.71,6.71,0,0,1,1.72.81,3.3,3.3,0,0,1,1.11,1.21,3.56,3.56,0,0,1,.4,1.77Z" transform="translate(-39.82 -23.46)"/><path id="path903" d="M224.51,268.53l-.7-1.74h-6l-.71,1.78a6.31,6.31,0,0,1-.7,1.42,1.18,1.18,0,0,1-1,.36,1.42,1.42,0,0,1-1-.39,1.18,1.18,0,0,1-.44-.89,2,2,0,0,1,.1-.58c.07-.21.18-.49.34-.85l3.77-9,.38-.93a5.06,5.06,0,0,1,.48-.91,1.91,1.91,0,0,1,.68-.58,2.44,2.44,0,0,1,2.07,0,1.7,1.7,0,0,1,.67.57,3.59,3.59,0,0,1,.44.76c.12.26.27.62.45,1.07l3.85,9a4.41,4.41,0,0,1,.45,1.5,1.2,1.2,0,0,1-.43.89,1.46,1.46,0,0,1-1,.4,1.26,1.26,0,0,1-.6-.13,1.1,1.1,0,0,1-.42-.31,2.82,2.82,0,0,1-.37-.63l-.34-.75Zm-5.91-3.86H223l-2.23-5.75Z" transform="translate(-39.82 -23.46)"/><path id="path905" d="M234.53,264.16h-1v4.47a1.77,1.77,0,0,1-.42,1.3,1.6,1.6,0,0,1-2.18,0,1.87,1.87,0,0,1-.39-1.28V257.92a1.73,1.73,0,0,1,.43-1.32,2,2,0,0,1,1.4-.41h4.86a16.71,16.71,0,0,1,1.72.08,4.29,4.29,0,0,1,1.29.33,3.64,3.64,0,0,1,1.22.78,3.44,3.44,0,0,1,.81,1.2,3.66,3.66,0,0,1,.28,1.44,3.32,3.32,0,0,1-.94,2.48,5.39,5.39,0,0,1-2.81,1.32,5.59,5.59,0,0,1,1.52,1.18,11.3,11.3,0,0,1,1.28,1.66,10.19,10.19,0,0,1,.89,1.59,3,3,0,0,1,.32,1,1,1,0,0,1-.19.55,1.39,1.39,0,0,1-.5.42,1.8,1.8,0,0,1-.75.16,1.51,1.51,0,0,1-.84-.23,2.28,2.28,0,0,1-.6-.56c-.16-.23-.38-.56-.66-1l-1.2-1.88a10.18,10.18,0,0,0-1.15-1.57,2.84,2.84,0,0,0-1-.75,3.84,3.84,0,0,0-1.32-.19Zm1.71-5.85h-2.75v3.82h2.67A7.78,7.78,0,0,0,238,262a2.15,2.15,0,0,0,1.12-.6,1.64,1.64,0,0,0,.39-1.16,1.69,1.69,0,0,0-.31-1,1.92,1.92,0,0,0-.86-.67,7,7,0,0,0-2.07-.2Z" transform="translate(-39.82 -23.46)"/><g id="g1839"><g id="g1825"><g id="g1801"><path id="path1651" class="cls-3" d="M229.52,204.06c14.35-4.92,25.8-13.07,30.54-28.66-4.25-5.19-7.66-10.68-2.41-16.48s19.58,4.56,29.73-2c9.69-8.12,6.65-14.52,9.38-21.69,19.61,29.31-19,43.93-19,43.93s19.11-9.34,22.5-18.62c4.89,17.4-12.29,34.84-27.06,36.29,10.37-1.63,15.32-6,20.09-9.37,2.29,19.46-26.09,24.65-26.25,23.84,6.17-.37,13.3-3,18.75-5.89-4.48,18.52-28.39,19-28.39,19,6.38-.47,12.77-1,19.15-5.35-4.31,15.61-15.81,17.18-27.45,18.48" transform="translate(-39.82 -23.46)"/><path id="path1651-0" class="cls-3" d="M134.93,204.06c-14.35-4.92-25.79-13.07-30.54-28.66,4.26-5.19,7.66-10.68,2.42-16.48s-19.58,4.56-29.74-2c-9.69-8.12-6.65-14.52-9.37-21.69-19.61,29.31,19,43.93,19,43.93s-19.12-9.34-22.5-18.62c-4.9,17.4,12.28,34.84,27.05,36.29-10.36-1.63-15.31-6-20.09-9.37-2.28,19.46,26.09,24.65,26.25,23.84-6.16-.37-13.3-3-18.75-5.89,4.48,18.52,28.39,19,28.39,19-6.38-.47-12.76-1-19.15-5.35,4.31,15.61,15.81,17.18,27.46,18.48" transform="translate(-39.82 -23.46)"/><path id="path1575" class="cls-3" d="M114.76,245.2l11.93-37.32c16.34-8,34.68-9.16,56.06,0,17.89-5.71,35.82-11.08,55.69,0l12.69,37.32c-28.26-15.3-50.21-12.95-68.38,0C154.13,226.81,134.53,236,114.76,245.2Z" transform="translate(-39.82 -23.46)"/></g><g id="g1796"><path id="path1719" class="cls-4" d="M127.26,154c0,34.58,24.89,62.6,55.59,62.6s55.59-28,55.59-62.6M136.67,119.16A66.9,66.9,0,0,0,127.26,154H238.44a68,68,0,0,0-9.4-34.84c-10-16.74-26.94-27.75-46.19-27.75s-36.2,11-46.18,27.74" transform="translate(-39.82 -23.46)"/><path id="path1724" class="cls-5" d="M136.67,119.16c28.86,15.94,59.58,18.32,92.37,0" transform="translate(-39.82 -23.46)"/><path id="path1724-4" class="cls-5" d="M136.67,188.61c28.86-15.94,59.58-18.32,92.37,0" transform="translate(-39.82 -23.46)"/><path id="path1759" class="cls-6" d="M182.85,91.42V216.61" transform="translate(-39.82 -23.46)"/><ellipse id="path1789" class="cls-7" cx="142.29" cy="130.92" rx="29.08" ry="61.88"/></g></g><path id="path1579" class="cls-6" d="M182.75,245.2l-.38-15.15" transform="translate(-39.82 -23.46)"/></g><path id="path1964" class="cls-8" d="M165.61,113.75h33.24l-.1,37.41h-7.58l10.8,9.66-16.67,68h-5.49l-17.33-68,9.85-9.1-6.72.1Z" transform="translate(-39.82 -23.46)"/><path id="path1986" class="cls-9" d="M183.64,183.25v43.8l16.21-65.9-9.78-8.44V148h5.22V117H168.91V148h5.36v4.68l-9.51,8.44,16.2,65.9v-43.8c-7.07-1.32-8.48-12.42,1.34-13.93C192.22,170.64,190.59,181.84,183.64,183.25Z" transform="translate(-39.82 -23.46)"/></g></g></svg>